<?xml version="1.0" encoding="UTF-8" standalone="no"?>
<!-- Created with Inkscape (http://www.inkscape.org/) -->

<svg
   xmlns:dc="http://purl.org/dc/elements/1.1/"
   xmlns:cc="http://creativecommons.org/ns#"
   xmlns:rdf="http://www.w3.org/1999/02/22-rdf-syntax-ns#"
   xmlns:svg="http://www.w3.org/2000/svg"
   xmlns="http://www.w3.org/2000/svg"
   xmlns:sodipodi="http://sodipodi.sourceforge.net/DTD/sodipodi-0.dtd"
   xmlns:inkscape="http://www.inkscape.org/namespaces/inkscape"
   width="210mm"
   height="100mm"
   viewBox="0 0 210 100"
   version="1.1"
   id="svg8"
   inkscape:version="0.92.3 (2405546, 2018-03-11)"
   sodipodi:docname="logoname.svg">
  <defs
     id="defs2" />
  <sodipodi:namedview
     id="base"
     pagecolor="#ffffff"
     bordercolor="#666666"
     borderopacity="1.0"
     inkscape:pageopacity="0.0"
     inkscape:pageshadow="2"
     inkscape:zoom="0.49497475"
     inkscape:cx="633.20862"
     inkscape:cy="135.30451"
     inkscape:document-units="mm"
     inkscape:current-layer="layer3"
     showgrid="false"
     inkscape:window-width="1366"
     inkscape:window-height="746"
     inkscape:window-x="1358"
     inkscape:window-y="-8"
     inkscape:window-maximized="1" />
  <metadata
     id="metadata5">
    <rdf:RDF>
      <cc:Work
         rdf:about="">
        <dc:format>image/svg+xml</dc:format>
        <dc:type
           rdf:resource="http://purl.org/dc/dcmitype/StillImage" />
        <dc:title></dc:title>
      </cc:Work>
    </rdf:RDF>
  </metadata>
  <g
     inkscape:groupmode="layer"
     id="layer3"
     inkscape:label="Capa 3">
    <rect
       style="opacity:1;fill:#008080;fill-opacity:1;stroke-width:0.24647895"
       id="rect33"
       width="208.47025"
       height="93.009773"
       x="1.0690792"
       y="3.2484329" />
  </g>
  <g
     inkscape:groupmode="layer"
     id="layer2"
     inkscape:label="Capa 2"
     transform="translate(0,-197)">
    <rect
       style="opacity:1;fill:#ffffff;fill-opacity:1;stroke-width:0.1670175"
       id="rect37"
       width="202.35808"
       height="86.085297"
       x="4.2816849"
       y="203.70558" />
    <path
       style="opacity:1;fill:#008080;fill-opacity:1;stroke-width:0.26458332"
       d="m 52.110298,208.17019 c -2.342663,0 -4.203015,0.7913 -5.581055,2.37402 -1.343586,1.58271 -2.015379,3.95661 -2.015379,7.12204 v 42.78602 c 0,10.16456 -3.393418,15.24713 -10.180259,15.24713 -2.549369,0 -4.513074,-0.58032 -5.891112,-1.74098 -1.378038,-1.16066 -2.35989,-2.55033 -2.945557,-4.16822 -0.585666,-1.61789 -1.171332,-3.7808 -1.756998,-6.48901 -0.551215,-2.53235 -1.343587,-4.39659 -2.377116,-5.59242 -1.033529,-1.19583 -2.566596,-1.79369 -4.599202,-1.79369 -2.101509,0 -3.824056,0.65099 -5.167644,1.95234 -1.343587,1.30134 -2.0153807,3.18312 -2.0153807,5.64513 0,2.32132 0.34451,4.76537 1.0335287,7.33288 0.689019,2.56752 1.584744,4.83619 2.687175,6.80579 2.101508,3.69301 4.857584,6.36609 8.268229,8.01915 3.445095,1.65306 7.73424,2.47943 12.867432,2.47943 5.684406,0 10.50754,-1.17817 14.4694,-3.53466 3.961861,-2.39166 6.804062,-5.71522 8.526611,-9.97097 0.15258,-0.37385 0.294402,-0.74699 0.430464,-1.11931 v 2.62774 c 0,3.3073 0.723471,5.70163 2.170411,7.18303 1.481392,1.48139 3.892958,2.22209 7.234701,2.22209 h 37.051993 c 0.75527,0 1.45518,-0.052 2.10169,-0.15452 0.14993,0.007 0.30134,0.0109 0.45526,0.0109 2.20486,0 4.03077,-0.79238 5.47771,-2.37712 1.44694,-1.58475 2.17041,-3.91019 2.17041,-6.97631 v -21.44572 h 14.05598 c 4.99416,0 9.33247,-0.55824 13.01523,-1.67535 v 23.22494 c 0,3.03168 0.70626,5.3399 2.11874,6.92464 1.4125,1.55029 3.27284,2.32544 5.58105,2.32544 2.20486,0 4.03076,-0.79237 5.4777,-2.37711 1.44694,-1.58474 2.17041,-3.91019 2.17041,-6.97632 v -21.44577 h 14.05599 c 9.40511,0 16.48479,-1.98093 21.23902,-5.94279 4.75423,-3.99631 7.13134,-9.85298 7.13134,-17.56999 0,-3.61735 -0.58567,-6.87296 -1.757,-9.76684 -1.17133,-2.89388 -2.89388,-5.3399 -5.16764,-7.33806 -2.23931,-1.99816 -4.90926,-3.42787 -8.00985,-4.28914 -3.13503,-0.89573 -7.61366,-1.34359 -13.43587,-1.34359 h -7.96075 v -0.077 h -36.34869 v 0.0765 h -17.79839 c -3.37619,0 -5.83944,0.72348 -7.38974,2.17042 -1.550287,1.44694 -2.325431,3.8585 -2.325431,7.2347 v 55.17906 H 73.211337 v -55.13876 c 0,-3.13503 -0.723471,-5.46047 -2.170412,-6.97632 -1.412488,-1.55029 -3.27284,-2.32543 -5.581054,-2.32543 -2.273763,0 -4.116888,0.77514 -5.529379,2.32543 -0.39828,0.44807 -0.737439,0.96292 -1.020609,1.54048 -0.312491,-0.6957 -0.70017,-1.30694 -1.166852,-1.82986 -1.37804,-1.58272 -3.255616,-2.37402 -5.632733,-2.37402 z m 62.415312,11.71815 h 10.33528 c 6.85574,0 11.38604,1.11965 13.5909,3.35897 1.96372,2.10151 2.94556,4.82313 2.94556,8.16487 0,2.79053 -0.63734,5.04707 -1.91203,6.76961 -1.27468,1.72256 -3.13504,2.96279 -5.58105,3.72071 -2.41157,0.75792 -5.42603,1.13688 -9.04338,1.13688 h -10.33528 z m 42.41911,5.3e-4 h 10.33529 c 6.85574,0 11.38604,1.11965 13.5909,3.35897 1.96371,2.1015 2.94556,4.82313 2.94556,8.16487 0,2.79053 -0.63735,5.04707 -1.91203,6.76962 -1.27469,1.72254 -3.13504,2.96278 -5.58106,3.7207 -2.41156,0.75792 -5.42602,1.13688 -9.04337,1.13688 h -10.33529 v -11.20242 c 0.005,-0.24316 0.007,-0.48838 0.007,-0.73535 0,-0.2317 -0.002,-0.46167 -0.007,-0.6904 z"
       id="rect40"
       inkscape:connector-curvature="0" />
  </g>
  <g
     inkscape:label="Capa 1"
     inkscape:groupmode="layer"
     id="layer1"
     style="display:inline"
     transform="translate(0,-197)" />
</svg>
